<svg class="prefix__icon" viewBox="0 0 1024 1024" xmlns="http://www.w3.org/2000/svg" width="200" height="200"><defs><style/></defs><path d="M285.312 1022.08a58.688 58.688 0 01-47.36-24.96 52.096 52.096 0 01-6.528-48l103.872-327.68H229.568a58.56 58.56 0 01-48.96-24.064c-11.072-15.872-13.248-36.8-5.824-57.344l174.208-478.4c12.48-34.048 48-59.712 82.688-59.712h362.88c20.288 0 38.144 8.768 48.832 24 11.2 15.872 13.312 36.8 5.952 57.408a31.168 31.168 0 01-3.776 7.232L663.36 355.968h83.584c20.224 0 38.08 8.768 48.768 24 11.2 15.872 13.376 36.736 6.016 57.344a33.024 33.024 0 01-5.696 9.856C718.912 538.432 333.76 994.176 320 1007.936a48.512 48.512 0 01-34.688 14.144zm-48.704-464.704h142.4a31.936 31.936 0 0130.464 41.728l-104 327.936c77.12-90.176 280.896-330.944 429.568-506.944H602.56a32 32 0 01-26.368-50.112l208.64-304H431.616c-7.104 0-19.136 8.256-22.528 17.6l-172.48 473.792z" fill="#fff"/></svg>